<svg width="48" height="77" xmlns="http://www.w3.org/2000/svg" fill="#195931" viewBox="25 25 178 240"><path d="M103.44,276.88c2.22,4.16,6.52,6.74,11.22,6.74s9.01-2.58,11.22-6.74l6.57-12.32c31.73-59.37,71.21-133.27,71.21-175.13
		c0-47.38-37.4-86.55-84.23-89.26V0h-4.37l-0.44,0.01L114.34,0l-4.45,0.02v0.15C63.05,2.88,25.66,42.04,25.66,89.42
		c0,41.87,39.49,115.76,71.21,175.13L103.44,276.88z M114.3,8.77l0.29,0l0.45,0c44.05,0.42,79.9,36.6,79.9,80.66
		c0,39.68-38.91,112.5-70.18,171.01l-6.58,12.33c-1.01,1.9-2.79,2.11-3.5,2.11s-2.49-0.21-3.5-2.11l-6.58-12.33
		C73.32,201.92,34.4,129.1,34.4,89.42C34.4,45.37,70.24,9.19,114.3,8.77z" fill="#195931"/><ellipse transform="matrix(0.9871 -0.1602 0.1602 0.9871 -12.8398 19.5885)" cx="115.08" cy="89.43" rx="35.72" ry="35.72"/></svg>